<mxfile host="app.diagrams.net" agent="Mozilla/5.0 (Macintosh; Intel Mac OS X 10_15_7) AppleWebKit/537.36 (KHTML, like Gecko) Chrome/128.0.0.0 Safari/537.36" version="24.7.13">
  <diagram id="C5RBs43oDa-KdzZeNtuy" name="Page-1">
    <mxGraphModel dx="1060" dy="1849" grid="1" gridSize="10" guides="1" tooltips="1" connect="1" arrows="1" fold="1" page="1" pageScale="1" pageWidth="827" pageHeight="1169" math="0" shadow="0">
      <root>
        <mxCell id="WIyWlLk6GJQsqaUBKTNV-0" />
        <mxCell id="WIyWlLk6GJQsqaUBKTNV-1" parent="WIyWlLk6GJQsqaUBKTNV-0" />
        <mxCell id="qgWlLGz6XNlTL0KHT0Hn-2" value="" style="edgeStyle=orthogonalEdgeStyle;rounded=0;orthogonalLoop=1;jettySize=auto;html=1;" edge="1" parent="WIyWlLk6GJQsqaUBKTNV-1" source="qgWlLGz6XNlTL0KHT0Hn-0" target="qgWlLGz6XNlTL0KHT0Hn-1">
          <mxGeometry relative="1" as="geometry" />
        </mxCell>
        <mxCell id="qgWlLGz6XNlTL0KHT0Hn-4" value="" style="edgeStyle=orthogonalEdgeStyle;rounded=0;orthogonalLoop=1;jettySize=auto;html=1;" edge="1" parent="WIyWlLk6GJQsqaUBKTNV-1" source="qgWlLGz6XNlTL0KHT0Hn-0" target="qgWlLGz6XNlTL0KHT0Hn-3">
          <mxGeometry relative="1" as="geometry" />
        </mxCell>
        <mxCell id="qgWlLGz6XNlTL0KHT0Hn-0" value="RONET" style="whiteSpace=wrap;html=1;aspect=fixed;" vertex="1" parent="WIyWlLk6GJQsqaUBKTNV-1">
          <mxGeometry x="80" y="440" width="80" height="80" as="geometry" />
        </mxCell>
        <mxCell id="qgWlLGz6XNlTL0KHT0Hn-10" value="" style="edgeStyle=orthogonalEdgeStyle;rounded=0;orthogonalLoop=1;jettySize=auto;html=1;" edge="1" parent="WIyWlLk6GJQsqaUBKTNV-1" source="qgWlLGz6XNlTL0KHT0Hn-1" target="qgWlLGz6XNlTL0KHT0Hn-8">
          <mxGeometry relative="1" as="geometry" />
        </mxCell>
        <mxCell id="qgWlLGz6XNlTL0KHT0Hn-1" value="SIGNUP" style="whiteSpace=wrap;html=1;aspect=fixed;" vertex="1" parent="WIyWlLk6GJQsqaUBKTNV-1">
          <mxGeometry x="240" y="340" width="80" height="80" as="geometry" />
        </mxCell>
        <mxCell id="qgWlLGz6XNlTL0KHT0Hn-9" value="" style="edgeStyle=orthogonalEdgeStyle;rounded=0;orthogonalLoop=1;jettySize=auto;html=1;" edge="1" parent="WIyWlLk6GJQsqaUBKTNV-1" source="qgWlLGz6XNlTL0KHT0Hn-3" target="qgWlLGz6XNlTL0KHT0Hn-8">
          <mxGeometry relative="1" as="geometry" />
        </mxCell>
        <mxCell id="qgWlLGz6XNlTL0KHT0Hn-3" value="LOGIN" style="whiteSpace=wrap;html=1;aspect=fixed;" vertex="1" parent="WIyWlLk6GJQsqaUBKTNV-1">
          <mxGeometry x="240" y="530" width="80" height="80" as="geometry" />
        </mxCell>
        <mxCell id="qgWlLGz6XNlTL0KHT0Hn-5" value="&lt;div&gt;&lt;font color=&quot;#ff9999&quot;&gt;{&amp;nbsp; &amp;nbsp; &amp;nbsp; &amp;nbsp; &amp;nbsp; &amp;nbsp; &amp;nbsp; &amp;nbsp; &amp;nbsp; &amp;nbsp; &amp;nbsp; &amp;nbsp; &amp;nbsp; &amp;nbsp; &amp;nbsp; &amp;nbsp; &amp;nbsp; &amp;nbsp; &amp;nbsp; &amp;nbsp; &amp;nbsp; &amp;nbsp;&amp;nbsp;&lt;/font&gt;&lt;/div&gt;&lt;div&gt;&lt;font color=&quot;#ff9999&quot;&gt;&quot;username&quot; : &quot;siddhant&quot;,&lt;/font&gt;&lt;/div&gt;&lt;div&gt;&lt;font color=&quot;#ff9999&quot;&gt;&quot;email&quot; : &quot;emailxyz@gmail.com&quot;,&lt;/font&gt;&lt;/div&gt;&lt;div&gt;&lt;font color=&quot;#ff9999&quot;&gt;&quot;password&quot; : &quot;12345&quot;&lt;/font&gt;&lt;/div&gt;&lt;div&gt;&lt;font color=&quot;#ff9999&quot;&gt;&amp;nbsp; &amp;nbsp; &amp;nbsp; &amp;nbsp; &amp;nbsp; &amp;nbsp; &amp;nbsp; &amp;nbsp; &amp;nbsp; &amp;nbsp; &amp;nbsp; &amp;nbsp; &amp;nbsp; &amp;nbsp; &amp;nbsp; &amp;nbsp; &amp;nbsp; &amp;nbsp; &amp;nbsp;}&lt;/font&gt;&lt;/div&gt;" style="rounded=1;whiteSpace=wrap;html=1;align=center;" vertex="1" parent="WIyWlLk6GJQsqaUBKTNV-1">
          <mxGeometry x="180" y="230" width="210" height="80" as="geometry" />
        </mxCell>
        <mxCell id="qgWlLGz6XNlTL0KHT0Hn-7" value="&lt;div&gt;&lt;font color=&quot;#ff9999&quot;&gt;{&amp;nbsp; &amp;nbsp; &amp;nbsp; &amp;nbsp; &amp;nbsp; &amp;nbsp; &amp;nbsp; &amp;nbsp; &amp;nbsp; &amp;nbsp; &amp;nbsp; &amp;nbsp; &amp;nbsp; &amp;nbsp; &amp;nbsp; &amp;nbsp; &amp;nbsp; &amp;nbsp; &amp;nbsp; &amp;nbsp; &amp;nbsp; &amp;nbsp;&amp;nbsp;&lt;/font&gt;&lt;/div&gt;&lt;div&gt;&lt;font color=&quot;#ff9999&quot;&gt;&quot;username&quot; : &quot;siddhant&quot;,&lt;/font&gt;&lt;/div&gt;&lt;div&gt;&lt;span style=&quot;color: rgb(255, 153, 153); background-color: initial;&quot;&gt;&quot;password&quot; : &quot;12345&quot;&lt;/span&gt;&lt;br&gt;&lt;/div&gt;&lt;div&gt;&lt;font color=&quot;#ff9999&quot;&gt;&amp;nbsp; &amp;nbsp; &amp;nbsp; &amp;nbsp; &amp;nbsp; &amp;nbsp; &amp;nbsp; &amp;nbsp; &amp;nbsp; &amp;nbsp; &amp;nbsp; &amp;nbsp; &amp;nbsp; &amp;nbsp; &amp;nbsp; &amp;nbsp; &amp;nbsp; &amp;nbsp; &amp;nbsp;}&lt;/font&gt;&lt;/div&gt;" style="rounded=1;whiteSpace=wrap;html=1;align=center;" vertex="1" parent="WIyWlLk6GJQsqaUBKTNV-1">
          <mxGeometry x="175" y="650" width="210" height="70" as="geometry" />
        </mxCell>
        <mxCell id="qgWlLGz6XNlTL0KHT0Hn-12" value="" style="edgeStyle=orthogonalEdgeStyle;rounded=0;orthogonalLoop=1;jettySize=auto;html=1;" edge="1" parent="WIyWlLk6GJQsqaUBKTNV-1" source="qgWlLGz6XNlTL0KHT0Hn-8" target="qgWlLGz6XNlTL0KHT0Hn-11">
          <mxGeometry relative="1" as="geometry" />
        </mxCell>
        <mxCell id="qgWlLGz6XNlTL0KHT0Hn-8" value="HOME" style="whiteSpace=wrap;html=1;aspect=fixed;" vertex="1" parent="WIyWlLk6GJQsqaUBKTNV-1">
          <mxGeometry x="440" y="430" width="80" height="80" as="geometry" />
        </mxCell>
        <mxCell id="qgWlLGz6XNlTL0KHT0Hn-14" value="" style="edgeStyle=orthogonalEdgeStyle;rounded=0;orthogonalLoop=1;jettySize=auto;html=1;" edge="1" parent="WIyWlLk6GJQsqaUBKTNV-1" source="qgWlLGz6XNlTL0KHT0Hn-11" target="qgWlLGz6XNlTL0KHT0Hn-13">
          <mxGeometry relative="1" as="geometry" />
        </mxCell>
        <mxCell id="qgWlLGz6XNlTL0KHT0Hn-18" value="" style="edgeStyle=orthogonalEdgeStyle;rounded=0;orthogonalLoop=1;jettySize=auto;html=1;" edge="1" parent="WIyWlLk6GJQsqaUBKTNV-1" source="qgWlLGz6XNlTL0KHT0Hn-11" target="qgWlLGz6XNlTL0KHT0Hn-17">
          <mxGeometry relative="1" as="geometry" />
        </mxCell>
        <mxCell id="qgWlLGz6XNlTL0KHT0Hn-38" value="" style="edgeStyle=orthogonalEdgeStyle;rounded=0;orthogonalLoop=1;jettySize=auto;html=1;" edge="1" parent="WIyWlLk6GJQsqaUBKTNV-1" source="qgWlLGz6XNlTL0KHT0Hn-11" target="qgWlLGz6XNlTL0KHT0Hn-37">
          <mxGeometry relative="1" as="geometry" />
        </mxCell>
        <mxCell id="qgWlLGz6XNlTL0KHT0Hn-39" value="" style="edgeStyle=orthogonalEdgeStyle;rounded=0;orthogonalLoop=1;jettySize=auto;html=1;" edge="1" parent="WIyWlLk6GJQsqaUBKTNV-1" source="qgWlLGz6XNlTL0KHT0Hn-11" target="qgWlLGz6XNlTL0KHT0Hn-37">
          <mxGeometry relative="1" as="geometry" />
        </mxCell>
        <mxCell id="qgWlLGz6XNlTL0KHT0Hn-40" value="" style="edgeStyle=orthogonalEdgeStyle;rounded=0;orthogonalLoop=1;jettySize=auto;html=1;" edge="1" parent="WIyWlLk6GJQsqaUBKTNV-1" source="qgWlLGz6XNlTL0KHT0Hn-11" target="qgWlLGz6XNlTL0KHT0Hn-37">
          <mxGeometry relative="1" as="geometry" />
        </mxCell>
        <mxCell id="qgWlLGz6XNlTL0KHT0Hn-42" value="" style="edgeStyle=orthogonalEdgeStyle;rounded=0;orthogonalLoop=1;jettySize=auto;html=1;" edge="1" parent="WIyWlLk6GJQsqaUBKTNV-1" source="qgWlLGz6XNlTL0KHT0Hn-11" target="qgWlLGz6XNlTL0KHT0Hn-41">
          <mxGeometry relative="1" as="geometry" />
        </mxCell>
        <mxCell id="qgWlLGz6XNlTL0KHT0Hn-11" value="UPLOAD" style="whiteSpace=wrap;html=1;aspect=fixed;" vertex="1" parent="WIyWlLk6GJQsqaUBKTNV-1">
          <mxGeometry x="600" y="430" width="80" height="80" as="geometry" />
        </mxCell>
        <mxCell id="qgWlLGz6XNlTL0KHT0Hn-16" value="" style="edgeStyle=orthogonalEdgeStyle;rounded=0;orthogonalLoop=1;jettySize=auto;html=1;" edge="1" parent="WIyWlLk6GJQsqaUBKTNV-1" source="qgWlLGz6XNlTL0KHT0Hn-13" target="qgWlLGz6XNlTL0KHT0Hn-15">
          <mxGeometry relative="1" as="geometry" />
        </mxCell>
        <mxCell id="qgWlLGz6XNlTL0KHT0Hn-35" value="" style="edgeStyle=orthogonalEdgeStyle;rounded=0;orthogonalLoop=1;jettySize=auto;html=1;" edge="1" parent="WIyWlLk6GJQsqaUBKTNV-1" source="qgWlLGz6XNlTL0KHT0Hn-13" target="qgWlLGz6XNlTL0KHT0Hn-34">
          <mxGeometry relative="1" as="geometry" />
        </mxCell>
        <mxCell id="qgWlLGz6XNlTL0KHT0Hn-13" value="CUTS" style="whiteSpace=wrap;html=1;aspect=fixed;" vertex="1" parent="WIyWlLk6GJQsqaUBKTNV-1">
          <mxGeometry x="600" y="210" width="80" height="80" as="geometry" />
        </mxCell>
        <mxCell id="qgWlLGz6XNlTL0KHT0Hn-23" value="" style="edgeStyle=orthogonalEdgeStyle;rounded=0;orthogonalLoop=1;jettySize=auto;html=1;" edge="1" parent="WIyWlLk6GJQsqaUBKTNV-1" source="qgWlLGz6XNlTL0KHT0Hn-15" target="qgWlLGz6XNlTL0KHT0Hn-22">
          <mxGeometry relative="1" as="geometry" />
        </mxCell>
        <mxCell id="qgWlLGz6XNlTL0KHT0Hn-25" value="" style="edgeStyle=orthogonalEdgeStyle;rounded=0;orthogonalLoop=1;jettySize=auto;html=1;" edge="1" parent="WIyWlLk6GJQsqaUBKTNV-1" source="qgWlLGz6XNlTL0KHT0Hn-15">
          <mxGeometry relative="1" as="geometry">
            <mxPoint x="830" y="-60" as="targetPoint" />
          </mxGeometry>
        </mxCell>
        <mxCell id="qgWlLGz6XNlTL0KHT0Hn-27" value="" style="edgeStyle=orthogonalEdgeStyle;rounded=0;orthogonalLoop=1;jettySize=auto;html=1;" edge="1" parent="WIyWlLk6GJQsqaUBKTNV-1" source="qgWlLGz6XNlTL0KHT0Hn-15" target="qgWlLGz6XNlTL0KHT0Hn-26">
          <mxGeometry relative="1" as="geometry" />
        </mxCell>
        <mxCell id="qgWlLGz6XNlTL0KHT0Hn-15" value="HOME" style="whiteSpace=wrap;html=1;aspect=fixed;" vertex="1" parent="WIyWlLk6GJQsqaUBKTNV-1">
          <mxGeometry x="600" y="-200" width="80" height="80" as="geometry" />
        </mxCell>
        <mxCell id="qgWlLGz6XNlTL0KHT0Hn-20" value="" style="edgeStyle=orthogonalEdgeStyle;rounded=0;orthogonalLoop=1;jettySize=auto;html=1;" edge="1" parent="WIyWlLk6GJQsqaUBKTNV-1" source="qgWlLGz6XNlTL0KHT0Hn-17" target="qgWlLGz6XNlTL0KHT0Hn-19">
          <mxGeometry relative="1" as="geometry" />
        </mxCell>
        <mxCell id="qgWlLGz6XNlTL0KHT0Hn-53" value="" style="edgeStyle=orthogonalEdgeStyle;rounded=0;orthogonalLoop=1;jettySize=auto;html=1;" edge="1" parent="WIyWlLk6GJQsqaUBKTNV-1" source="qgWlLGz6XNlTL0KHT0Hn-17" target="qgWlLGz6XNlTL0KHT0Hn-52">
          <mxGeometry relative="1" as="geometry" />
        </mxCell>
        <mxCell id="qgWlLGz6XNlTL0KHT0Hn-55" value="" style="edgeStyle=orthogonalEdgeStyle;rounded=0;orthogonalLoop=1;jettySize=auto;html=1;" edge="1" parent="WIyWlLk6GJQsqaUBKTNV-1" source="qgWlLGz6XNlTL0KHT0Hn-17" target="qgWlLGz6XNlTL0KHT0Hn-54">
          <mxGeometry relative="1" as="geometry" />
        </mxCell>
        <mxCell id="qgWlLGz6XNlTL0KHT0Hn-57" value="" style="edgeStyle=orthogonalEdgeStyle;rounded=0;orthogonalLoop=1;jettySize=auto;html=1;" edge="1" parent="WIyWlLk6GJQsqaUBKTNV-1" source="qgWlLGz6XNlTL0KHT0Hn-17" target="qgWlLGz6XNlTL0KHT0Hn-56">
          <mxGeometry relative="1" as="geometry" />
        </mxCell>
        <mxCell id="qgWlLGz6XNlTL0KHT0Hn-58" style="edgeStyle=orthogonalEdgeStyle;rounded=0;orthogonalLoop=1;jettySize=auto;html=1;exitX=1;exitY=0.5;exitDx=0;exitDy=0;entryX=0;entryY=0.5;entryDx=0;entryDy=0;" edge="1" parent="WIyWlLk6GJQsqaUBKTNV-1" source="qgWlLGz6XNlTL0KHT0Hn-17" target="qgWlLGz6XNlTL0KHT0Hn-52">
          <mxGeometry relative="1" as="geometry" />
        </mxCell>
        <mxCell id="qgWlLGz6XNlTL0KHT0Hn-61" style="edgeStyle=orthogonalEdgeStyle;rounded=0;orthogonalLoop=1;jettySize=auto;html=1;entryX=0;entryY=0.75;entryDx=0;entryDy=0;" edge="1" parent="WIyWlLk6GJQsqaUBKTNV-1" source="qgWlLGz6XNlTL0KHT0Hn-17" target="qgWlLGz6XNlTL0KHT0Hn-56">
          <mxGeometry relative="1" as="geometry">
            <Array as="points">
              <mxPoint x="800" y="820" />
              <mxPoint x="800" y="978" />
            </Array>
          </mxGeometry>
        </mxCell>
        <mxCell id="qgWlLGz6XNlTL0KHT0Hn-62" style="edgeStyle=orthogonalEdgeStyle;rounded=0;orthogonalLoop=1;jettySize=auto;html=1;exitX=1;exitY=0.5;exitDx=0;exitDy=0;entryX=0;entryY=0.75;entryDx=0;entryDy=0;" edge="1" parent="WIyWlLk6GJQsqaUBKTNV-1" source="qgWlLGz6XNlTL0KHT0Hn-17" target="qgWlLGz6XNlTL0KHT0Hn-59">
          <mxGeometry relative="1" as="geometry" />
        </mxCell>
        <mxCell id="qgWlLGz6XNlTL0KHT0Hn-17" value="EVENTS" style="whiteSpace=wrap;html=1;aspect=fixed;" vertex="1" parent="WIyWlLk6GJQsqaUBKTNV-1">
          <mxGeometry x="600" y="780" width="80" height="80" as="geometry" />
        </mxCell>
        <mxCell id="qgWlLGz6XNlTL0KHT0Hn-49" value="" style="edgeStyle=orthogonalEdgeStyle;rounded=0;orthogonalLoop=1;jettySize=auto;html=1;" edge="1" parent="WIyWlLk6GJQsqaUBKTNV-1" source="qgWlLGz6XNlTL0KHT0Hn-19" target="qgWlLGz6XNlTL0KHT0Hn-48">
          <mxGeometry relative="1" as="geometry" />
        </mxCell>
        <mxCell id="qgWlLGz6XNlTL0KHT0Hn-19" value="CHATS" style="whiteSpace=wrap;html=1;aspect=fixed;" vertex="1" parent="WIyWlLk6GJQsqaUBKTNV-1">
          <mxGeometry x="600" y="1200" width="80" height="80" as="geometry" />
        </mxCell>
        <mxCell id="qgWlLGz6XNlTL0KHT0Hn-22" value="PROFILE" style="whiteSpace=wrap;html=1;aspect=fixed;" vertex="1" parent="WIyWlLk6GJQsqaUBKTNV-1">
          <mxGeometry x="790" y="-350" width="80" height="80" as="geometry" />
        </mxCell>
        <mxCell id="qgWlLGz6XNlTL0KHT0Hn-68" value="" style="edgeStyle=orthogonalEdgeStyle;rounded=0;orthogonalLoop=1;jettySize=auto;html=1;" edge="1" parent="WIyWlLk6GJQsqaUBKTNV-1" source="qgWlLGz6XNlTL0KHT0Hn-24" target="qgWlLGz6XNlTL0KHT0Hn-67">
          <mxGeometry relative="1" as="geometry" />
        </mxCell>
        <mxCell id="qgWlLGz6XNlTL0KHT0Hn-24" value="NOTIFICATIONS" style="whiteSpace=wrap;html=1;aspect=fixed;" vertex="1" parent="WIyWlLk6GJQsqaUBKTNV-1">
          <mxGeometry x="780" y="-60" width="100" height="100" as="geometry" />
        </mxCell>
        <mxCell id="qgWlLGz6XNlTL0KHT0Hn-29" value="" style="edgeStyle=orthogonalEdgeStyle;rounded=0;orthogonalLoop=1;jettySize=auto;html=1;" edge="1" parent="WIyWlLk6GJQsqaUBKTNV-1" source="qgWlLGz6XNlTL0KHT0Hn-26" target="qgWlLGz6XNlTL0KHT0Hn-28">
          <mxGeometry relative="1" as="geometry" />
        </mxCell>
        <mxCell id="qgWlLGz6XNlTL0KHT0Hn-26" value="FEED" style="whiteSpace=wrap;html=1;aspect=fixed;" vertex="1" parent="WIyWlLk6GJQsqaUBKTNV-1">
          <mxGeometry x="790" y="-200" width="80" height="80" as="geometry" />
        </mxCell>
        <mxCell id="qgWlLGz6XNlTL0KHT0Hn-31" value="" style="edgeStyle=orthogonalEdgeStyle;rounded=0;orthogonalLoop=1;jettySize=auto;html=1;" edge="1" parent="WIyWlLk6GJQsqaUBKTNV-1" source="qgWlLGz6XNlTL0KHT0Hn-28" target="qgWlLGz6XNlTL0KHT0Hn-30">
          <mxGeometry relative="1" as="geometry" />
        </mxCell>
        <mxCell id="qgWlLGz6XNlTL0KHT0Hn-28" value="POSTS" style="whiteSpace=wrap;html=1;aspect=fixed;" vertex="1" parent="WIyWlLk6GJQsqaUBKTNV-1">
          <mxGeometry x="990" y="-200" width="80" height="80" as="geometry" />
        </mxCell>
        <mxCell id="qgWlLGz6XNlTL0KHT0Hn-30" value="COMMENTS" style="whiteSpace=wrap;html=1;aspect=fixed;" vertex="1" parent="WIyWlLk6GJQsqaUBKTNV-1">
          <mxGeometry x="1181" y="-200" width="80" height="80" as="geometry" />
        </mxCell>
        <mxCell id="qgWlLGz6XNlTL0KHT0Hn-32" value="&lt;div&gt;&lt;font color=&quot;#ff9999&quot;&gt;{&amp;nbsp; &amp;nbsp; &amp;nbsp; &amp;nbsp; &amp;nbsp; &amp;nbsp; &amp;nbsp; &amp;nbsp; &amp;nbsp; &amp;nbsp; &amp;nbsp; &amp;nbsp; &amp;nbsp; &amp;nbsp; &amp;nbsp; &amp;nbsp; &amp;nbsp; &amp;nbsp; &amp;nbsp; &amp;nbsp; &amp;nbsp; &amp;nbsp;&amp;nbsp;&lt;/font&gt;&lt;/div&gt;&lt;div&gt;&lt;font color=&quot;#ff9999&quot;&gt;&quot;TEXT&quot; : &quot;HELLO WORLD&quot;,&lt;/font&gt;&lt;/div&gt;&lt;div&gt;&lt;font color=&quot;#ff9999&quot;&gt;&quot;IMAGE&quot; : &quot;XYZ.PNG&quot;,&lt;/font&gt;&lt;/div&gt;&lt;div&gt;&lt;font color=&quot;#ff9999&quot;&gt;&quot;METADATA&quot; : &quot;SIZE, RES&quot;&lt;/font&gt;&lt;/div&gt;&lt;div&gt;&lt;font color=&quot;#ff9999&quot;&gt;&amp;nbsp; &amp;nbsp; &amp;nbsp; &amp;nbsp; &amp;nbsp; &amp;nbsp; &amp;nbsp; &amp;nbsp; &amp;nbsp; &amp;nbsp; &amp;nbsp; &amp;nbsp; &amp;nbsp; &amp;nbsp; &amp;nbsp; &amp;nbsp; &amp;nbsp; &amp;nbsp; &amp;nbsp;}&lt;/font&gt;&lt;/div&gt;&lt;div&gt;&lt;font color=&quot;#ff9999&quot;&gt;&lt;br&gt;&lt;/font&gt;&lt;/div&gt;&lt;div&gt;&lt;font color=&quot;#ff9999&quot;&gt;FEATURES: LIKE, COMMENT, SHARE&lt;/font&gt;&lt;/div&gt;" style="rounded=1;whiteSpace=wrap;html=1;align=center;" vertex="1" parent="WIyWlLk6GJQsqaUBKTNV-1">
          <mxGeometry x="910" y="-330" width="230" height="110" as="geometry" />
        </mxCell>
        <mxCell id="qgWlLGz6XNlTL0KHT0Hn-34" value="SHORTS VIDEO" style="whiteSpace=wrap;html=1;aspect=fixed;" vertex="1" parent="WIyWlLk6GJQsqaUBKTNV-1">
          <mxGeometry x="790" y="210" width="80" height="80" as="geometry" />
        </mxCell>
        <mxCell id="qgWlLGz6XNlTL0KHT0Hn-36" value="&lt;div&gt;&lt;font color=&quot;#ff9999&quot;&gt;{&amp;nbsp; &amp;nbsp; &amp;nbsp; &amp;nbsp; &amp;nbsp; &amp;nbsp; &amp;nbsp; &amp;nbsp; &amp;nbsp; &amp;nbsp; &amp;nbsp; &amp;nbsp; &amp;nbsp; &amp;nbsp; &amp;nbsp; &amp;nbsp; &amp;nbsp; &amp;nbsp; &amp;nbsp; &amp;nbsp; &amp;nbsp; &amp;nbsp;&amp;nbsp;&lt;/font&gt;&lt;/div&gt;&lt;div&gt;&lt;font color=&quot;#ff9999&quot;&gt;&quot;TEXT&quot; : &quot;HELLO WORLD&quot;,&lt;/font&gt;&lt;/div&gt;&lt;div&gt;&lt;font color=&quot;#ff9999&quot;&gt;&quot;VIDEO&quot; : &quot;XYZ.MP4&quot;,&lt;/font&gt;&lt;/div&gt;&lt;div&gt;&lt;font color=&quot;#ff9999&quot;&gt;&quot;METADATA&quot; : &quot;SIZE, RES&quot;&lt;/font&gt;&lt;/div&gt;&lt;div&gt;&lt;font color=&quot;#ff9999&quot;&gt;&amp;nbsp; &amp;nbsp; &amp;nbsp; &amp;nbsp; &amp;nbsp; &amp;nbsp; &amp;nbsp; &amp;nbsp; &amp;nbsp; &amp;nbsp; &amp;nbsp; &amp;nbsp; &amp;nbsp; &amp;nbsp; &amp;nbsp; &amp;nbsp; &amp;nbsp; &amp;nbsp; &amp;nbsp;}&lt;/font&gt;&lt;/div&gt;&lt;div&gt;&lt;font color=&quot;#ff9999&quot;&gt;&lt;br&gt;&lt;/font&gt;&lt;/div&gt;&lt;div&gt;&lt;font color=&quot;#ff9999&quot;&gt;FEATURES: LIKE, COMMENT, SHARE&lt;/font&gt;&lt;/div&gt;" style="rounded=1;whiteSpace=wrap;html=1;align=center;" vertex="1" parent="WIyWlLk6GJQsqaUBKTNV-1">
          <mxGeometry x="710" y="90" width="230" height="110" as="geometry" />
        </mxCell>
        <mxCell id="qgWlLGz6XNlTL0KHT0Hn-44" style="edgeStyle=orthogonalEdgeStyle;rounded=0;orthogonalLoop=1;jettySize=auto;html=1;exitX=1;exitY=0.5;exitDx=0;exitDy=0;" edge="1" parent="WIyWlLk6GJQsqaUBKTNV-1" source="qgWlLGz6XNlTL0KHT0Hn-37" target="qgWlLGz6XNlTL0KHT0Hn-43">
          <mxGeometry relative="1" as="geometry" />
        </mxCell>
        <mxCell id="qgWlLGz6XNlTL0KHT0Hn-37" value="POSTS" style="whiteSpace=wrap;html=1;aspect=fixed;" vertex="1" parent="WIyWlLk6GJQsqaUBKTNV-1">
          <mxGeometry x="780" y="350" width="80" height="80" as="geometry" />
        </mxCell>
        <mxCell id="qgWlLGz6XNlTL0KHT0Hn-47" style="edgeStyle=orthogonalEdgeStyle;rounded=0;orthogonalLoop=1;jettySize=auto;html=1;exitX=1;exitY=0.5;exitDx=0;exitDy=0;" edge="1" parent="WIyWlLk6GJQsqaUBKTNV-1" source="qgWlLGz6XNlTL0KHT0Hn-41" target="qgWlLGz6XNlTL0KHT0Hn-46">
          <mxGeometry relative="1" as="geometry" />
        </mxCell>
        <mxCell id="qgWlLGz6XNlTL0KHT0Hn-41" value="EVENTS" style="whiteSpace=wrap;html=1;aspect=fixed;" vertex="1" parent="WIyWlLk6GJQsqaUBKTNV-1">
          <mxGeometry x="780" y="500" width="80" height="80" as="geometry" />
        </mxCell>
        <mxCell id="qgWlLGz6XNlTL0KHT0Hn-43" value="&lt;div&gt;&lt;font color=&quot;#ff9999&quot;&gt;{&amp;nbsp; &amp;nbsp; &amp;nbsp; &amp;nbsp; &amp;nbsp; &amp;nbsp; &amp;nbsp; &amp;nbsp; &amp;nbsp; &amp;nbsp; &amp;nbsp; &amp;nbsp; &amp;nbsp; &amp;nbsp; &amp;nbsp; &amp;nbsp; &amp;nbsp; &amp;nbsp; &amp;nbsp; &amp;nbsp; &amp;nbsp; &amp;nbsp;&amp;nbsp;&lt;/font&gt;&lt;/div&gt;&lt;div&gt;&lt;font color=&quot;#ff9999&quot;&gt;&quot;TEXT&quot; : &quot;HELLO WORLD&quot;,&lt;/font&gt;&lt;/div&gt;&lt;div&gt;&lt;font color=&quot;#ff9999&quot;&gt;&quot;IMAGE&quot; : &quot;XYZ.PNG&quot;,&lt;/font&gt;&lt;/div&gt;&lt;div&gt;&lt;font color=&quot;#ff9999&quot;&gt;&quot;METADATA&quot; : &quot;SIZE, RES&quot;&lt;/font&gt;&lt;/div&gt;&lt;div&gt;&lt;font color=&quot;#ff9999&quot;&gt;&amp;nbsp; &amp;nbsp; &amp;nbsp; &amp;nbsp; &amp;nbsp; &amp;nbsp; &amp;nbsp; &amp;nbsp; &amp;nbsp; &amp;nbsp; &amp;nbsp; &amp;nbsp; &amp;nbsp; &amp;nbsp; &amp;nbsp; &amp;nbsp; &amp;nbsp; &amp;nbsp; &amp;nbsp;}&lt;/font&gt;&lt;/div&gt;&lt;div&gt;&lt;font color=&quot;#ff9999&quot;&gt;&lt;br&gt;&lt;/font&gt;&lt;/div&gt;&lt;div&gt;&lt;font color=&quot;#ff9999&quot;&gt;FEATURES: LIKE, COMMENT, SHARE&lt;/font&gt;&lt;/div&gt;" style="rounded=1;whiteSpace=wrap;html=1;align=center;" vertex="1" parent="WIyWlLk6GJQsqaUBKTNV-1">
          <mxGeometry x="960" y="335" width="230" height="110" as="geometry" />
        </mxCell>
        <mxCell id="qgWlLGz6XNlTL0KHT0Hn-46" value="&lt;div&gt;&lt;font color=&quot;#ff9999&quot;&gt;{&amp;nbsp; &amp;nbsp; &amp;nbsp; &amp;nbsp; &amp;nbsp; &amp;nbsp; &amp;nbsp; &amp;nbsp; &amp;nbsp; &amp;nbsp; &amp;nbsp; &amp;nbsp; &amp;nbsp; &amp;nbsp; &amp;nbsp; &amp;nbsp; &amp;nbsp; &amp;nbsp; &amp;nbsp; &amp;nbsp; &amp;nbsp; &amp;nbsp;&amp;nbsp;&lt;/font&gt;&lt;/div&gt;&lt;div&gt;&lt;font color=&quot;#ff9999&quot;&gt;EVENTS SCHEMA TO BE UPDATED&lt;/font&gt;&lt;/div&gt;&lt;div&gt;&lt;font color=&quot;#ff9999&quot;&gt;&amp;nbsp; &amp;nbsp; &amp;nbsp; &amp;nbsp; &amp;nbsp; &amp;nbsp; &amp;nbsp; &amp;nbsp; &amp;nbsp; &amp;nbsp; &amp;nbsp; &amp;nbsp; &amp;nbsp; &amp;nbsp; &amp;nbsp; &amp;nbsp; &amp;nbsp; &amp;nbsp; &amp;nbsp;}&lt;/font&gt;&lt;/div&gt;&lt;div&gt;&lt;font color=&quot;#ff9999&quot;&gt;&lt;br&gt;&lt;/font&gt;&lt;/div&gt;&lt;div&gt;&lt;font color=&quot;#ff9999&quot;&gt;FEATURES: JOIN, COMMENT, SHARE&lt;/font&gt;&lt;/div&gt;" style="rounded=1;whiteSpace=wrap;html=1;align=center;" vertex="1" parent="WIyWlLk6GJQsqaUBKTNV-1">
          <mxGeometry x="970" y="485" width="230" height="110" as="geometry" />
        </mxCell>
        <mxCell id="qgWlLGz6XNlTL0KHT0Hn-51" value="" style="edgeStyle=orthogonalEdgeStyle;rounded=0;orthogonalLoop=1;jettySize=auto;html=1;" edge="1" parent="WIyWlLk6GJQsqaUBKTNV-1" source="qgWlLGz6XNlTL0KHT0Hn-48" target="qgWlLGz6XNlTL0KHT0Hn-50">
          <mxGeometry relative="1" as="geometry" />
        </mxCell>
        <mxCell id="qgWlLGz6XNlTL0KHT0Hn-48" value="CONTACTS" style="whiteSpace=wrap;html=1;aspect=fixed;" vertex="1" parent="WIyWlLk6GJQsqaUBKTNV-1">
          <mxGeometry x="780" y="1200" width="80" height="80" as="geometry" />
        </mxCell>
        <mxCell id="qgWlLGz6XNlTL0KHT0Hn-50" value="MESSGING,&lt;div&gt;WEB SOCKET&lt;/div&gt;" style="whiteSpace=wrap;html=1;aspect=fixed;" vertex="1" parent="WIyWlLk6GJQsqaUBKTNV-1">
          <mxGeometry x="960" y="1200" width="80" height="80" as="geometry" />
        </mxCell>
        <mxCell id="qgWlLGz6XNlTL0KHT0Hn-52" value="SEARCH BAR" style="whiteSpace=wrap;html=1;aspect=fixed;" vertex="1" parent="WIyWlLk6GJQsqaUBKTNV-1">
          <mxGeometry x="920" y="630" width="80" height="80" as="geometry" />
        </mxCell>
        <mxCell id="qgWlLGz6XNlTL0KHT0Hn-54" value="CATEGORIES" style="whiteSpace=wrap;html=1;aspect=fixed;" vertex="1" parent="WIyWlLk6GJQsqaUBKTNV-1">
          <mxGeometry x="920" y="780" width="80" height="80" as="geometry" />
        </mxCell>
        <mxCell id="qgWlLGz6XNlTL0KHT0Hn-60" value="" style="edgeStyle=orthogonalEdgeStyle;rounded=0;orthogonalLoop=1;jettySize=auto;html=1;" edge="1" parent="WIyWlLk6GJQsqaUBKTNV-1" source="qgWlLGz6XNlTL0KHT0Hn-56" target="qgWlLGz6XNlTL0KHT0Hn-59">
          <mxGeometry relative="1" as="geometry" />
        </mxCell>
        <mxCell id="qgWlLGz6XNlTL0KHT0Hn-64" value="" style="edgeStyle=orthogonalEdgeStyle;rounded=0;orthogonalLoop=1;jettySize=auto;html=1;" edge="1" parent="WIyWlLk6GJQsqaUBKTNV-1" source="qgWlLGz6XNlTL0KHT0Hn-56" target="qgWlLGz6XNlTL0KHT0Hn-63">
          <mxGeometry relative="1" as="geometry" />
        </mxCell>
        <mxCell id="qgWlLGz6XNlTL0KHT0Hn-56" value="CAROUSEL OF POPULAR EVENTS" style="whiteSpace=wrap;html=1;aspect=fixed;" vertex="1" parent="WIyWlLk6GJQsqaUBKTNV-1">
          <mxGeometry x="915" y="910" width="90" height="90" as="geometry" />
        </mxCell>
        <mxCell id="qgWlLGz6XNlTL0KHT0Hn-65" style="edgeStyle=orthogonalEdgeStyle;rounded=0;orthogonalLoop=1;jettySize=auto;html=1;exitX=1;exitY=0.5;exitDx=0;exitDy=0;entryX=0;entryY=0.5;entryDx=0;entryDy=0;" edge="1" parent="WIyWlLk6GJQsqaUBKTNV-1" source="qgWlLGz6XNlTL0KHT0Hn-59" target="qgWlLGz6XNlTL0KHT0Hn-63">
          <mxGeometry relative="1" as="geometry" />
        </mxCell>
        <mxCell id="qgWlLGz6XNlTL0KHT0Hn-59" value="LIST OF ALL EVENTS" style="whiteSpace=wrap;html=1;aspect=fixed;" vertex="1" parent="WIyWlLk6GJQsqaUBKTNV-1">
          <mxGeometry x="915" y="1050" width="90" height="90" as="geometry" />
        </mxCell>
        <mxCell id="qgWlLGz6XNlTL0KHT0Hn-63" value="EVENT DETAILS" style="whiteSpace=wrap;html=1;aspect=fixed;" vertex="1" parent="WIyWlLk6GJQsqaUBKTNV-1">
          <mxGeometry x="1220" y="980" width="90" height="90" as="geometry" />
        </mxCell>
        <mxCell id="qgWlLGz6XNlTL0KHT0Hn-66" value="&lt;div&gt;&lt;font color=&quot;#ff9999&quot;&gt;{&amp;nbsp; &amp;nbsp; &amp;nbsp; &amp;nbsp; &amp;nbsp; &amp;nbsp; &amp;nbsp; &amp;nbsp; &amp;nbsp; &amp;nbsp; &amp;nbsp; &amp;nbsp; &amp;nbsp; &amp;nbsp; &amp;nbsp; &amp;nbsp; &amp;nbsp; &amp;nbsp; &amp;nbsp; &amp;nbsp; &amp;nbsp; &amp;nbsp; &amp;nbsp; &amp;nbsp; &amp;nbsp; &amp;nbsp;&lt;/font&gt;&lt;/div&gt;&lt;div&gt;&lt;font color=&quot;#ff9999&quot;&gt;&quot;DATE&quot; : &quot;14TH NOVEMBER&quot;,&lt;/font&gt;&lt;/div&gt;&lt;div&gt;&lt;font color=&quot;#ff9999&quot;&gt;&quot;LOCATION&quot; : &quot;BANGLAORE&quot;,&lt;/font&gt;&lt;/div&gt;&lt;div&gt;&lt;font color=&quot;#ff9999&quot;&gt;&quot;ORGANIZER&quot; : &quot;SHRESTH&quot;,&lt;/font&gt;&lt;/div&gt;&lt;div&gt;&lt;font color=&quot;#ff9999&quot;&gt;&quot;IMAGES&quot; : &quot;XYZ.PNG&quot;,&lt;/font&gt;&lt;/div&gt;&lt;div&gt;&lt;font color=&quot;#ff9999&quot;&gt;&quot;CATEGORY&quot; : &quot;TECH&quot;,&lt;/font&gt;&lt;/div&gt;&lt;div&gt;&lt;font color=&quot;#ff9999&quot;&gt;&quot;DESCRIPTION&quot; : &quot;FRONTEND TECH BY SHRESTH&quot;&lt;/font&gt;&lt;/div&gt;&lt;div&gt;&lt;font color=&quot;#ff9999&quot;&gt;&amp;nbsp; &amp;nbsp; &amp;nbsp; &amp;nbsp; &amp;nbsp; &amp;nbsp; &amp;nbsp; &amp;nbsp; &amp;nbsp; &amp;nbsp; &amp;nbsp; &amp;nbsp; &amp;nbsp; &amp;nbsp; &amp;nbsp; &amp;nbsp; &amp;nbsp; &amp;nbsp; &amp;nbsp; &amp;nbsp; &amp;nbsp; &amp;nbsp; &amp;nbsp; &amp;nbsp; &amp;nbsp; &amp;nbsp; &amp;nbsp; &amp;nbsp; &amp;nbsp; &amp;nbsp; &amp;nbsp; &amp;nbsp; &amp;nbsp;}&lt;/font&gt;&lt;/div&gt;&lt;div&gt;&lt;font color=&quot;#ff9999&quot;&gt;&lt;br&gt;&lt;/font&gt;&lt;/div&gt;&lt;div&gt;&lt;font color=&quot;#ff9999&quot;&gt;FEATURES: JOIN, FOLLOW ORGANIZER, SEE MUTUALS WHO ARE GOING&lt;/font&gt;&lt;/div&gt;" style="rounded=1;whiteSpace=wrap;html=1;align=center;" vertex="1" parent="WIyWlLk6GJQsqaUBKTNV-1">
          <mxGeometry x="1130" y="800" width="300" height="170" as="geometry" />
        </mxCell>
        <mxCell id="qgWlLGz6XNlTL0KHT0Hn-67" value="&lt;font color=&quot;#66ff66&quot;&gt;EVENT JOINED,&amp;nbsp;&lt;/font&gt;&lt;div&gt;&lt;font color=&quot;#66ff66&quot;&gt;EVENT APPROACHING,&lt;/font&gt;&lt;/div&gt;&lt;div&gt;&lt;font color=&quot;#66ff66&quot;&gt;SOMEONE FOLLOWED,&lt;/font&gt;&lt;/div&gt;&lt;div&gt;&lt;font color=&quot;#66ff66&quot;&gt;LIKES,&lt;/font&gt;&lt;/div&gt;&lt;div&gt;&lt;font color=&quot;#66ff66&quot;&gt;COMMENT&lt;/font&gt;&lt;/div&gt;&lt;div&gt;&lt;br&gt;&lt;/div&gt;" style="whiteSpace=wrap;html=1;aspect=fixed;" vertex="1" parent="WIyWlLk6GJQsqaUBKTNV-1">
          <mxGeometry x="960" y="-80" width="140" height="140" as="geometry" />
        </mxCell>
      </root>
    </mxGraphModel>
  </diagram>
</mxfile>
